<svg xmlns="http://www.w3.org/2000/svg" width="1280" height="800" viewBox="0 0 1280 800" font-family="Arial, Helvetica, sans-serif">
<defs>
  <filter id="shadow" x="-20%" y="-20%" width="140%" height="150%">
    <feDropShadow dx="0" dy="14" stdDeviation="18" flood-color="#0f172a" flood-opacity=".18"/>
  </filter>
  <filter id="soft" x="-20%" y="-20%" width="140%" height="150%">
    <feDropShadow dx="0" dy="8" stdDeviation="12" flood-color="#0f172a" flood-opacity=".14"/>
  </filter>
  <linearGradient id="darkBg" x1="0" y1="0" x2="1" y2="1">
    <stop stop-color="#0e1117"/>
    <stop offset="1" stop-color="#171d27"/>
  </linearGradient>
  <linearGradient id="paper" x1="0" y1="0" x2="0" y2="1">
    <stop stop-color="#f8fafc"/>
    <stop offset="1" stop-color="#eef3f9"/>
  </linearGradient>
</defs>
<rect x="0" y="0" width="1280" height="800" rx="0" fill="#0e1117" stroke="none" stroke-width="1" />
<rect x="0" y="0" width="1280" height="800" rx="0" fill="#10151d" stroke="none" stroke-width="1" /><text x="92" y="73" font-size="15" fill="#a8b3c7" font-weight="700" letter-spacing="2">Long Article</text><text x="92" y="142" font-size="38" fill="#f8fafc" font-weight="750" >Readable pages need clear position and quick jumps</text><text x="92" y="183" font-size="18" fill="#a8b3c7" font-weight="400" >A local outline keeps navigation close without covering the reading flow.</text><line x1="92" y1="220" x2="840" y2="220" stroke="#2a3342" stroke-width="1" /><text x="92" y="272" font-size="26" fill="#f8fafc" font-weight="720" >Overview</text><text x="92" y="308" font-size="17" fill="#a8b3c7" font-weight="400" >Clear section structure, comfortable spacing, and enough text to feel like a real page.</text><text x="92" y="338" font-size="17" fill="#a8b3c7" font-weight="400" >The navigation UI remains separate, predictable, and low-friction.</text><text x="92" y="390" font-size="26" fill="#f8fafc" font-weight="720" >Install and configure</text><text x="92" y="426" font-size="17" fill="#a8b3c7" font-weight="400" >Clear section structure, comfortable spacing, and enough text to feel like a real page.</text><text x="92" y="456" font-size="17" fill="#a8b3c7" font-weight="400" >The navigation UI remains separate, predictable, and low-friction.</text><text x="92" y="516" font-size="26" fill="#f8fafc" font-weight="720" >Reading modes</text><text x="92" y="552" font-size="17" fill="#a8b3c7" font-weight="400" >Clear section structure, comfortable spacing, and enough text to feel like a real page.</text><text x="92" y="582" font-size="17" fill="#a8b3c7" font-weight="400" >The navigation UI remains separate, predictable, and low-friction.</text><text x="92" y="634" font-size="26" fill="#f8fafc" font-weight="720" >Adaptive appearance</text><text x="92" y="670" font-size="17" fill="#a8b3c7" font-weight="400" >Clear section structure, comfortable spacing, and enough text to feel like a real page.</text><text x="92" y="700" font-size="17" fill="#a8b3c7" font-weight="400" >The navigation UI remains separate, predictable, and low-friction.</text><text x="92" y="752" font-size="26" fill="#f8fafc" font-weight="720" >Keyboard navigation</text><text x="92" y="788" font-size="17" fill="#a8b3c7" font-weight="400" >Clear section structure, comfortable spacing, and enough text to feel like a real page.</text><text x="92" y="818" font-size="17" fill="#a8b3c7" font-weight="400" >The navigation UI remains separate, predictable, and low-friction.</text><text x="92" y="870" font-size="26" fill="#f8fafc" font-weight="720" >Dynamic pages</text><text x="92" y="906" font-size="17" fill="#a8b3c7" font-weight="400" >Clear section structure, comfortable spacing, and enough text to feel like a real page.</text><text x="92" y="936" font-size="17" fill="#a8b3c7" font-weight="400" >The navigation UI remains separate, predictable, and low-friction.</text><rect x="1212" y="198" width="26" height="4" rx="2" fill="rgba(255,255,255,.46)" stroke="none" stroke-width="1" /><rect x="1220" y="226" width="18" height="4" rx="2" fill="rgba(255,255,255,.46)" stroke="none" stroke-width="1" /><rect x="1225" y="260" width="13" height="4" rx="2" fill="rgba(255,255,255,.46)" stroke="none" stroke-width="1" /><rect x="1218" y="292" width="20" height="4" rx="2" fill="rgba(255,255,255,.46)" stroke="none" stroke-width="1" /><rect x="1215.9545454545455" y="330" width="22.045454545454543" height="4.590909090909091" rx="2.2954545454545454" fill="rgba(255,255,255,.46)" stroke="none" stroke-width="1" /><rect x="1191.3636363636363" y="360" width="46.63636363636364" height="5.2727272727272725" rx="2.6363636363636362" fill="rgba(255,255,255,.46)" stroke="none" stroke-width="1" /><rect x="1188" y="392" width="50" height="6" rx="3" fill="#f8fafc" stroke="none" stroke-width="1" /><rect x="1203.3636363636363" y="424" width="34.63636363636364" height="5.2727272727272725" rx="2.6363636363636362" fill="rgba(255,255,255,.46)" stroke="none" stroke-width="1" /><rect x="1207.5" y="458" width="30.5" height="4.5" rx="2.25" fill="rgba(255,255,255,.46)" stroke="none" stroke-width="1" /><rect x="1226" y="490" width="12" height="4" rx="2" fill="rgba(255,255,255,.46)" stroke="none" stroke-width="1" /><rect x="1220" y="528" width="18" height="4" rx="2" fill="rgba(255,255,255,.46)" stroke="none" stroke-width="1" /><rect x="1212" y="560" width="26" height="4" rx="2" fill="rgba(255,255,255,.46)" stroke="none" stroke-width="1" /><rect x="1224" y="592" width="14" height="4" rx="2" fill="rgba(255,255,255,.46)" stroke="none" stroke-width="1" /><rect x="1218" y="628" width="20" height="4" rx="2" fill="rgba(255,255,255,.46)" stroke="none" stroke-width="1" /><rect x="938" y="374" width="246" height="38" rx="9" fill="rgba(17,24,39,.92)" stroke="rgba(255,255,255,.18)" stroke-width="1" filter="url(#soft)"/><text x="952" y="399" font-size="14" fill="#f8fafc" font-weight="700" >Reading modes</text><rect x="1208" y="708" width="44" height="44" rx="22" fill="rgba(255,255,255,.09)" stroke="rgba(255,255,255,.15)" stroke-width="1" /><text x="1223" y="737" font-size="24" fill="#f8fafc" font-weight="700" >↑</text>
</svg>